<svg width="389" height="520" viewBox="0 0 389 520" fill="none" xmlns="http://www.w3.org/2000/svg">
<g opacity="0.08" clip-path="url(#clip0_16_184)">
<mask id="mask0_16_184" style="mask-type:luminance" maskUnits="userSpaceOnUse" x="-1" y="-1" width="390" height="522">
<path d="M389 520.574H-0.562515V-0.573608H389V520.574Z" fill="white"/>
</mask>
<g mask="url(#mask0_16_184)">
<path fill-rule="evenodd" clip-rule="evenodd" d="M67.3752 160.053C75.1252 167.285 75.5627 179.444 68.3127 187.175C61.0627 194.969 48.8752 195.343 41.1252 188.11C33.3752 180.94 32.9377 168.782 40.1877 161.05C47.4377 153.257 59.5627 152.82 67.3752 160.053ZM45.1252 183.871C50.5002 188.859 59.0002 188.609 64.0002 183.185C69.0627 177.823 68.7502 169.343 63.3752 164.355C57.9377 159.305 49.5002 159.616 44.4377 164.979C39.4377 170.403 39.7502 178.82 45.1252 183.871Z" fill="url(#paint0_linear_16_184)"/>
<path d="M8.87449 90.0336C23.6245 115.472 56.312 124.201 81.8745 109.487C107.374 94.7722 116.187 62.2254 101.437 36.7242C86.687 11.223 53.9995 2.49403 28.437 17.2087C2.87449 31.9233 -5.87551 64.5324 8.87449 90.0336Z" fill="url(#paint1_linear_16_184)"/>
<path fill-rule="evenodd" clip-rule="evenodd" d="M362.812 31.7362L360.437 33.6068L356 28.1823L358.375 26.2494L362.812 31.7362ZM353.562 37.5972L350.75 38.6571L348.187 32.1103L351.062 30.988L353.562 37.5972ZM339.562 33.4197L342.562 33.295L342.937 40.2782L339.875 40.4653L339.562 33.4197ZM333.875 32.7338L332 39.53L329.062 38.7195L330.937 31.9233L333.875 32.7338ZM325.75 29.554L321.875 35.4149L319.375 33.7314L323.25 27.8705L325.75 29.554ZM313.5 28.3693L311.625 26L317.187 21.6355L319.062 24.0048L313.5 28.3693ZM314.375 16.5852L307.75 19.0168L306.687 16.2111L313.312 13.7794L314.375 16.5852ZM312.25 8.10555L305.187 8.35495L305.125 5.36214L312.125 5.11275L312.25 8.10555ZM312.875 -0.561115L306.125 -2.55632L306.937 -5.42443L313.75 -3.49157L312.875 -0.561115ZM316.187 -8.60428L310.375 -12.5947L312.062 -15.0887L317.875 -11.0983L316.187 -8.60428ZM324.25 -17.0839L321.812 -15.2757L317.562 -20.8249L319.937 -22.6331L324.25 -17.0839ZM332.187 -20.8249L329.312 -19.8273L326.937 -26.4364L329.812 -27.434L332.187 -20.8249ZM340.875 -21.8849L337.812 -21.8225L337.687 -28.8681L340.687 -28.9304L340.875 -21.8849ZM346.562 -21.0743L348.625 -27.8081L351.5 -26.9352L349.437 -20.2014L346.562 -21.0743ZM354.625 -17.7074L358.687 -23.4436L361.125 -21.7602L357.125 -15.9616L354.625 -17.7074ZM361.187 -11.9712L366.812 -16.211L368.625 -13.7793L363 -9.60188L361.187 -11.9712ZM365.687 -4.48917L372.312 -6.73378L373.312 -3.86567L366.625 -1.62107L365.687 -4.48917ZM367.625 4.0528L374.625 3.92809L374.687 6.98325L367.625 7.0456V4.0528ZM372.625 17.7075L365.875 15.5876L366.812 12.7195L373.5 14.8394L372.625 17.7075ZM367.312 27.247L361.562 23.1319L363.312 20.7003L369.062 24.8154L367.312 27.247Z" fill="url(#paint2_linear_16_184)"/>
<path fill-rule="evenodd" clip-rule="evenodd" d="M176.687 48.8824C205.5 74.7577 207.812 119.213 181.875 147.957C155.937 176.7 111.375 179.069 82.4997 153.132C53.6872 127.257 51.3747 82.8009 77.3122 54.0575C103.25 25.3141 147.812 22.9448 176.687 48.8824ZM97.6872 136.36C117.25 153.88 147.437 152.321 165 132.806C182.625 113.352 181.062 83.2374 161.5 65.6546C141.937 48.1342 111.75 49.693 94.1247 69.1462C76.5622 88.6618 78.1247 118.777 97.6872 136.36Z" fill="url(#paint3_linear_16_184)"/>
<path fill-rule="evenodd" clip-rule="evenodd" d="M307.563 150.978C308.688 161.765 300.875 171.429 290.063 172.552C279.25 173.674 269.563 165.88 268.438 155.094C267.313 144.307 275.125 134.643 285.938 133.52C296.75 132.336 306.438 140.192 307.563 150.978ZM274.375 154.47C275.188 161.952 281.938 167.377 289.438 166.628C296.938 165.818 302.375 159.084 301.625 151.602C300.813 144.12 294.063 138.633 286.563 139.444C279.063 140.254 273.625 146.988 274.375 154.47Z" fill="url(#paint4_linear_16_184)"/>
<path fill-rule="evenodd" clip-rule="evenodd" d="M387.5 295.477C387.458 295.643 387.396 295.789 387.312 295.914L360 270.537C360.167 270.454 360.312 270.371 360.437 270.288L387.5 295.477ZM386.875 296.849C386.792 297.015 386.708 297.161 386.625 297.285L358.687 271.348C358.812 271.223 358.958 271.119 359.125 271.036L386.875 296.849ZM385.312 299.405C385.187 299.53 385.083 299.655 385 299.779L356.312 273.094C356.437 273.01 356.562 272.906 356.687 272.782L385.312 299.405ZM388.125 294.043C388.042 294.209 387.979 294.376 387.937 294.542L361.437 269.851C361.604 269.81 361.771 269.747 361.937 269.664L388.125 294.043ZM384.437 300.59C384.312 300.715 384.187 300.839 384.062 300.964L355.312 274.153C355.437 274.07 355.542 273.966 355.625 273.842L384.437 300.59ZM386.187 298.221C386.104 298.345 386.021 298.47 385.937 298.595L357.562 272.221C357.687 272.096 357.812 271.992 357.937 271.909L386.187 298.221ZM388.625 292.484C388.583 292.651 388.521 292.817 388.437 292.983L363 269.29C363.167 269.249 363.333 269.207 363.5 269.165L388.625 292.484ZM389.187 286.935C389.187 287.185 389.187 287.413 389.187 287.621L368.375 268.23C368.583 268.23 368.792 268.23 369 268.23L389.187 286.935ZM389 284.753C389.042 285.002 389.083 285.252 389.125 285.501L370.562 268.23C370.812 268.23 371.062 268.251 371.312 268.293L389 284.753ZM389.187 288.93C389.187 289.138 389.187 289.346 389.187 289.554L366.437 268.417C366.646 268.376 366.854 268.355 367.062 268.355L389.187 288.93ZM388.437 282.197C388.521 282.488 388.583 282.779 388.625 283.07L373 268.48C373.292 268.521 373.583 268.584 373.875 268.667L388.437 282.197ZM389.062 290.739C389.021 290.946 388.979 291.134 388.937 291.3L364.75 268.791C364.917 268.75 365.104 268.708 365.312 268.667L389.062 290.739ZM387.187 279.017C387.354 279.391 387.521 279.765 387.687 280.139L376 269.228C376.375 269.353 376.771 269.498 377.187 269.664L387.187 279.017ZM383 273.468C383.75 274.174 384.437 274.943 385.062 275.775L380.562 271.535C381.396 272.117 382.208 272.761 383 273.468ZM381.312 303.583C381.187 303.666 381.062 303.77 380.937 303.894L352.75 277.645C352.833 277.479 352.917 277.333 353 277.209L381.312 303.583ZM370.437 307.448C370.229 307.49 370 307.511 369.75 307.511L349.875 288.993C349.875 288.743 349.875 288.515 349.875 288.307L370.437 307.448ZM372.375 307.261C372.167 307.303 371.958 307.324 371.75 307.324L349.812 286.935C349.812 286.727 349.833 286.54 349.875 286.374L372.375 307.261ZM368.25 307.386C368 307.386 367.75 307.365 367.5 307.324L350.125 291.175C350.083 290.926 350.042 290.676 350 290.427L368.25 307.386ZM365.75 307.074C365.458 306.991 365.146 306.908 364.812 306.825L350.75 293.731C350.625 293.44 350.521 293.149 350.437 292.859L365.75 307.074ZM383.5 301.588C383.375 301.671 383.271 301.775 383.187 301.899L354.437 275.151C354.521 275.026 354.625 274.902 354.75 274.777L383.5 301.588ZM374.125 306.887C373.917 306.929 373.729 306.97 373.562 307.012L350 285.065C350 284.898 350.021 284.711 350.062 284.504L374.125 306.887ZM380 304.393C379.875 304.476 379.75 304.56 379.625 304.643L351.937 278.892C352.021 278.767 352.083 278.622 352.125 278.456L380 304.393ZM378.687 305.141C378.562 305.225 378.417 305.308 378.25 305.391L351.312 280.326C351.354 280.16 351.417 279.994 351.5 279.827L378.687 305.141ZM375.75 306.388C375.583 306.472 375.396 306.534 375.187 306.576L350.25 283.381C350.292 283.215 350.333 283.028 350.375 282.82L375.75 306.388ZM382.437 302.585C382.312 302.71 382.187 302.814 382.062 302.897L353.5 276.336C353.583 276.211 353.667 276.086 353.75 275.962L382.437 302.585ZM362.75 306.201C362.333 306.035 361.917 305.869 361.5 305.703L352.125 297.036C351.917 296.62 351.729 296.205 351.562 295.789L362.75 306.201ZM377.375 305.827C377.208 305.91 377.042 305.973 376.875 306.014L350.812 281.76C350.854 281.594 350.896 281.428 350.937 281.261L377.375 305.827ZM356.187 302.149C355.771 301.775 355.375 301.38 355 300.964L357.437 303.271C357.021 302.938 356.604 302.564 356.187 302.149Z" fill="url(#paint5_linear_16_184)"/>
<path d="M154.688 -6.11026C156.75 -23.1318 144.688 -38.5323 127.688 -40.6522C110.688 -42.7098 95.1877 -30.6762 93.0627 -13.6546C91.0002 3.30461 103.063 18.7674 120.125 20.825C137.125 22.8825 152.625 10.849 154.688 -6.11026Z" fill="url(#paint6_linear_16_184)"/>
<path fill-rule="evenodd" clip-rule="evenodd" d="M27.5625 140.412L26.8125 141.597L24 139.851L24.75 138.667L27.5625 140.412ZM24.375 144.403L23.25 145.338L21.1875 142.782L22.25 141.909L24.375 144.403ZM17.5625 144.652L18.875 144.091L20.0625 147.209L18.75 147.707L17.5625 144.652ZM14.9375 145.213L15.125 148.518L13.75 148.58L13.5625 145.276L14.9375 145.213ZM10.8125 145.089L9.99995 148.269L8.62495 147.895L9.43745 144.715L10.8125 145.089ZM5.24995 146.398L4.06245 145.65L5.81245 142.906L6.99995 143.655L5.24995 146.398ZM3.87495 141.036L1.31245 143.156L0.374954 142.034L2.93745 139.976L3.87495 141.036ZM1.68745 137.607L-1.43755 138.791L-1.93755 137.482L1.18745 136.297L1.68745 137.607ZM0.624954 133.679L-2.68755 133.803L-2.75005 132.432L0.562454 132.245L0.624954 133.679ZM0.812454 129.626L-2.37505 128.753L-2.00005 127.381L1.18745 128.254L0.812454 129.626ZM3.12495 124.638L2.31245 125.823L-0.437546 124.014L0.374954 122.83L3.12495 124.638ZM6.06245 121.77L4.93745 122.643L2.87495 120.086L3.99995 119.213L6.06245 121.77ZM9.74995 119.962L8.37495 120.46L7.24995 117.405L8.56245 116.907L9.74995 119.962ZM12.375 119.401L12.25 116.158L13.6875 116.096L13.8125 119.401H12.375ZM16.4375 119.65L17.375 116.47L18.75 116.907L17.8125 120.024L16.4375 119.65ZM20.25 121.209L22.0625 118.465L23.25 119.276L21.375 122.019L20.25 121.209ZM23.375 123.827L26 121.832L26.875 122.892L24.25 124.95L23.375 123.827ZM25.5625 127.257L28.625 126.197L29.125 127.506L26 128.628L25.5625 127.257ZM29.875 132.556L26.5625 132.619V131.185L29.8125 131.122L29.875 132.556ZM29 137.607L25.8125 136.671L26.25 135.3L29.375 136.235L29 137.607Z" fill="url(#paint7_linear_16_184)"/>
<path fill-rule="evenodd" clip-rule="evenodd" d="M167.187 0.685987C167.874 -9.53943 176.812 -17.2708 187.062 -16.585C197.312 -15.8368 205.062 -6.92073 204.374 3.30469C203.687 13.5301 194.749 21.2615 184.437 20.5757C174.187 19.8275 166.437 10.9114 167.187 0.685987ZM198.374 2.86824C198.874 -4.05262 193.624 -10.1006 186.624 -10.5994C179.687 -11.0982 173.624 -5.79843 173.187 1.12244C172.687 8.0433 177.937 14.0913 184.874 14.5901C191.812 15.0889 197.874 9.78911 198.374 2.86824Z" fill="url(#paint8_linear_16_184)"/>
<path fill-rule="evenodd" clip-rule="evenodd" d="M345.25 75.0696C345.937 74.259 345.812 73.0744 345.062 72.3885C344.25 71.7027 343 71.8274 342.312 72.6379C341.687 73.4485 341.75 74.6331 342.562 75.319C343.375 76.0048 344.562 75.8801 345.25 75.0696ZM338.687 82.8633C339.375 82.0528 339.25 80.8681 338.5 80.1823C337.687 79.4964 336.437 79.6211 335.75 80.4317C335.125 81.2422 335.187 82.4269 336 83.1127C336.812 83.7986 338 83.6739 338.687 82.8633ZM332.125 90.6571C332.812 89.9089 332.687 88.6619 331.937 87.9761C331.125 87.3526 329.875 87.4149 329.187 88.2254C328.562 89.036 328.625 90.2207 329.437 90.9065C330.25 91.5924 331.437 91.4677 332.125 90.6571ZM344 60.729C344.687 59.9185 344.562 58.7338 343.75 58.048C342.937 57.3621 341.75 57.4868 341.062 58.2974C340.375 59.1079 340.5 60.2926 341.312 60.9784C342.125 61.6643 343.312 61.5396 344 60.729ZM337.437 68.5228C338.125 67.7123 338 66.5276 337.187 65.8418C336.375 65.1559 335.187 65.2806 334.5 66.0912C333.812 66.9017 333.937 68.0864 334.75 68.7722C335.562 69.4581 336.75 69.3334 337.437 68.5228ZM330.875 76.3166C331.562 75.506 331.437 74.3214 330.625 73.6355C329.812 72.9497 328.625 73.0744 327.937 73.8849C327.25 74.6955 327.375 75.8801 328.187 76.566C329 77.2518 330.187 77.1271 330.875 76.3166ZM324.312 84.1103C325 83.3621 324.875 82.1151 324.062 81.4293C323.25 80.8058 322.062 80.8681 321.375 81.6787C320.687 82.4892 320.812 83.6739 321.625 84.3597C322.437 85.0456 323.625 84.9209 324.312 84.1103ZM314.812 89.4725C314.125 90.283 314.25 91.4677 315.062 92.1535C315.875 92.8394 317.062 92.777 317.75 91.9665C318.437 91.1559 318.312 89.9089 317.5 89.2854C316.687 88.5995 315.5 88.6619 314.812 89.4725ZM336.187 54.1823C336.875 53.3717 336.75 52.1871 335.937 51.5012C335.125 50.8154 333.937 50.9401 333.25 51.7506C332.562 52.5612 332.687 53.7458 333.5 54.4317C334.312 55.1175 335.5 54.9928 336.187 54.1823ZM329.625 61.976C330.312 61.1655 330.187 59.9808 329.375 59.295C328.562 58.6091 327.375 58.7338 326.687 59.5444C326 60.3549 326.125 61.5396 326.937 62.2255C327.75 62.9113 328.937 62.7866 329.625 61.976ZM323.062 69.7698C323.75 68.9593 323.625 67.7746 322.812 67.0888C322 66.4029 320.812 66.5276 320.125 67.3382C319.437 68.1487 319.562 69.3334 320.375 70.0192C321.187 70.7051 322.375 70.5804 323.062 69.7698ZM316.5 77.5636C317.187 76.8154 317.062 75.5684 316.25 74.8825C315.437 74.259 314.25 74.3214 313.562 75.1319C312.875 75.9425 313 77.1271 313.812 77.813C314.625 78.4988 315.812 78.3741 316.5 77.5636ZM309.937 85.4197C310.625 84.6091 310.5 83.3621 309.687 82.7386C308.875 82.0528 307.687 82.1151 307 82.9257C306.312 83.7362 306.437 84.9209 307.25 85.6067C308.062 86.2926 309.25 86.2302 309.937 85.4197ZM328.375 47.6355C329.062 46.825 328.937 45.6403 328.125 44.9545C327.312 44.2686 326.125 44.3933 325.437 45.2039C324.75 46.0144 324.875 47.1991 325.687 47.8849C326.5 48.5708 327.687 48.4461 328.375 47.6355ZM321.812 55.4293C322.5 54.6187 322.375 53.4341 321.562 52.7482C320.75 52.0624 319.562 52.1871 318.875 52.9976C318.187 53.8082 318.312 54.9928 319.125 55.6787C319.937 56.3645 321.125 56.2398 321.812 55.4293ZM315.25 63.2231C315.937 62.4125 315.812 61.2278 315 60.542C314.187 59.8561 313 59.9808 312.312 60.7914C311.625 61.6019 311.75 62.7866 312.562 63.4725C313.375 64.1583 314.562 64.0336 315.25 63.2231ZM308.687 71.0168C309.375 70.2686 309.25 69.0216 308.437 68.3358C307.625 67.7123 306.437 67.7746 305.75 68.5852C305.062 69.3957 305.187 70.5804 306 71.2662C306.812 71.9521 308 71.8274 308.687 71.0168ZM302.125 78.8729C302.812 78.0624 302.687 76.8154 301.875 76.1919C301.062 75.506 299.875 75.5684 299.187 76.3789C298.5 77.1895 298.625 78.3741 299.437 79.06C300.25 79.7458 301.437 79.6835 302.125 78.8729ZM314 48.8825C314.687 48.072 314.562 46.8873 313.75 46.2015C312.937 45.5156 311.75 45.6403 311.062 46.4509C310.375 47.2614 310.5 48.4461 311.312 49.1319C312.125 49.8178 313.312 49.6931 314 48.8825ZM307.437 56.6763C308.125 55.8657 308 54.6811 307.187 53.9952C306.375 53.3094 305.187 53.4341 304.5 54.2446C303.812 55.0552 303.937 56.2398 304.75 56.9257C305.562 57.6115 306.75 57.4868 307.437 56.6763ZM300.875 64.4701C301.562 63.7219 301.437 62.4748 300.625 61.789C299.812 61.1031 298.625 61.2278 297.937 62.0384C297.25 62.849 297.375 64.0336 298.187 64.7195C299 65.4053 300.187 65.2806 300.875 64.4701Z" fill="url(#paint9_linear_16_184)"/>
<path fill-rule="evenodd" clip-rule="evenodd" d="M19.0625 231.319C30.125 238.801 33 253.703 25.5625 264.739C18.125 275.775 3.12495 278.643 -7.93755 271.223C-18.9375 263.803 -21.875 248.839 -14.4375 237.866C-7.00005 226.83 7.99995 223.899 19.0625 231.319ZM-3.81255 265.175C3.87495 270.288 14.3125 268.293 19.4375 260.623C24.625 253.017 22.625 242.604 14.9375 237.429C7.24995 232.254 -3.18755 234.312 -8.31255 241.918C-13.5 249.588 -11.4375 260 -3.81255 265.175Z" fill="url(#paint10_linear_16_184)"/>
</g>
</g>
<defs>
<linearGradient id="paint0_linear_16_184" x1="27.0514" y1="175.056" x2="53.2212" y2="146.924" gradientUnits="userSpaceOnUse">
<stop stop-color="white" stop-opacity="0"/>
<stop offset="1" stop-color="white"/>
</linearGradient>
<linearGradient id="paint1_linear_16_184" x1="128.113" y1="82.8689" x2="35.7149" y2="136.345" gradientUnits="userSpaceOnUse">
<stop stop-color="white" stop-opacity="0"/>
<stop offset="1" stop-color="white"/>
</linearGradient>
<linearGradient id="paint2_linear_16_184" x1="388.715" y1="10.7835" x2="334.812" y2="54.5392" gradientUnits="userSpaceOnUse">
<stop stop-color="white" stop-opacity="0"/>
<stop offset="1" stop-color="white"/>
</linearGradient>
<linearGradient id="paint3_linear_16_184" x1="134.805" y1="200.105" x2="30.4768" y2="105.94" gradientUnits="userSpaceOnUse">
<stop stop-color="white" stop-opacity="0"/>
<stop offset="1" stop-color="white"/>
</linearGradient>
<linearGradient id="paint4_linear_16_184" x1="266.372" y1="135.553" x2="305.522" y2="131.43" gradientUnits="userSpaceOnUse">
<stop stop-color="white" stop-opacity="0"/>
<stop offset="1" stop-color="white"/>
</linearGradient>
<linearGradient id="paint5_linear_16_184" x1="388.367" y1="267.495" x2="389.735" y2="306.752" gradientUnits="userSpaceOnUse">
<stop stop-color="white" stop-opacity="0"/>
<stop offset="1" stop-color="white"/>
</linearGradient>
<linearGradient id="paint6_linear_16_184" x1="96.8639" y1="-44.4051" x2="158.464" y2="-36.821" gradientUnits="userSpaceOnUse">
<stop stop-color="white" stop-opacity="0"/>
<stop offset="1" stop-color="white"/>
</linearGradient>
<linearGradient id="paint7_linear_16_184" x1="35.825" y1="127.214" x2="18.6462" y2="154.771" gradientUnits="userSpaceOnUse">
<stop stop-color="white"/>
<stop offset="1" stop-color="white" stop-opacity="0"/>
</linearGradient>
<linearGradient id="paint8_linear_16_184" x1="205.676" y1="-15.2688" x2="203.085" y2="21.8572" gradientUnits="userSpaceOnUse">
<stop stop-color="white" stop-opacity="0"/>
<stop offset="1" stop-color="white"/>
</linearGradient>
<linearGradient id="paint9_linear_16_184" x1="353.061" y1="65.8187" x2="324.432" y2="100.017" gradientUnits="userSpaceOnUse">
<stop stop-color="white" stop-opacity="0"/>
<stop offset="1" stop-color="white"/>
</linearGradient>
<linearGradient id="paint10_linear_16_184" x1="-27.9038" y1="257.782" x2="-1.02208" y2="217.835" gradientUnits="userSpaceOnUse">
<stop stop-color="white" stop-opacity="0"/>
<stop offset="1" stop-color="white"/>
</linearGradient>
<clipPath id="clip0_16_184">
<rect width="389" height="520" fill="white"/>
</clipPath>
</defs>
</svg>
