<svg width="389" height="520" viewBox="0 0 389 520" fill="none" xmlns="http://www.w3.org/2000/svg">
<g opacity="0.08" clip-path="url(#clip0_16_224)">
<mask id="mask0_16_224" style="mask-type:luminance" maskUnits="userSpaceOnUse" x="0" y="-1" width="390" height="522">
<path d="M0 520.574H389.562V-0.573608H0V520.574Z" fill="white"/>
</mask>
<g mask="url(#mask0_16_224)">
<path fill-rule="evenodd" clip-rule="evenodd" d="M321.625 160.053C313.875 167.285 313.437 179.444 320.687 187.175C327.937 194.969 340.125 195.343 347.875 188.11C355.625 180.94 356.062 168.782 348.812 161.05C341.562 153.257 329.437 152.82 321.625 160.053ZM343.875 183.871C338.5 188.859 330 188.609 325 183.185C319.937 177.823 320.25 169.343 325.625 164.355C331.062 159.305 339.5 159.616 344.562 164.979C349.562 170.403 349.25 178.82 343.875 183.871Z" fill="url(#paint0_linear_16_224)"/>
<path d="M380.125 90.0336C365.375 115.472 332.688 124.201 307.125 109.487C281.625 94.7722 272.813 62.2254 287.563 36.7242C302.313 11.223 335 2.49403 360.563 17.2087C386.125 31.9233 394.875 64.5324 380.125 90.0336Z" fill="url(#paint1_linear_16_224)"/>
<path fill-rule="evenodd" clip-rule="evenodd" d="M26.1875 31.7362L28.5625 33.6068L33 28.1823L30.625 26.2494L26.1875 31.7362ZM35.4375 37.5972L38.25 38.6571L40.8125 32.1103L37.9375 30.988L35.4375 37.5972ZM49.4375 33.4197L46.4375 33.295L46.0625 40.2782L49.125 40.4653L49.4375 33.4197ZM55.125 32.7338L57 39.53L59.9375 38.7195L58.0625 31.9233L55.125 32.7338ZM63.25 29.554L67.125 35.4149L69.625 33.7314L65.75 27.8705L63.25 29.554ZM75.5 28.3693L77.375 26L71.8125 21.6355L69.9375 24.0048L75.5 28.3693ZM74.625 16.5852L81.25 19.0168L82.3125 16.2111L75.6875 13.7794L74.625 16.5852ZM76.75 8.10555L83.8125 8.35495L83.875 5.36214L76.875 5.11275L76.75 8.10555ZM76.125 -0.561115L82.875 -2.55632L82.0625 -5.42443L75.25 -3.49157L76.125 -0.561115ZM72.8125 -8.60428L78.625 -12.5947L76.9375 -15.0887L71.125 -11.0983L72.8125 -8.60428ZM64.75 -17.0839L67.1875 -15.2757L71.4375 -20.8249L69.0625 -22.6331L64.75 -17.0839ZM56.8125 -20.8249L59.6875 -19.8273L62.0625 -26.4364L59.1875 -27.434L56.8125 -20.8249ZM48.125 -21.8849L51.1875 -21.8225L51.3125 -28.8681L48.3125 -28.9304L48.125 -21.8849ZM42.4375 -21.0743L40.375 -27.8081L37.5 -26.9352L39.5625 -20.2014L42.4375 -21.0743ZM34.375 -17.7074L30.3125 -23.4436L27.875 -21.7602L31.875 -15.9616L34.375 -17.7074ZM27.8125 -11.9712L22.1875 -16.211L20.375 -13.7793L26 -9.60188L27.8125 -11.9712ZM23.3125 -4.48917L16.6875 -6.73378L15.6875 -3.86567L22.375 -1.62107L23.3125 -4.48917ZM21.375 4.0528L14.375 3.92809L14.3125 6.98325L21.375 7.0456V4.0528ZM16.375 17.7075L23.125 15.5876L22.1875 12.7195L15.5 14.8394L16.375 17.7075ZM21.6875 27.247L27.4375 23.1319L25.6875 20.7003L19.9375 24.8154L21.6875 27.247Z" fill="url(#paint2_linear_16_224)"/>
<path fill-rule="evenodd" clip-rule="evenodd" d="M212.313 48.8824C183.5 74.7577 181.188 119.213 207.125 147.957C233.063 176.7 277.625 179.069 306.5 153.132C335.313 127.257 337.625 82.8009 311.688 54.0575C285.75 25.3141 241.188 22.9448 212.313 48.8824ZM291.313 136.36C271.75 153.88 241.563 152.321 224 132.806C206.375 113.352 207.938 83.2374 227.5 65.6546C247.063 48.1342 277.25 49.693 294.875 69.1462C312.438 88.6618 310.875 118.777 291.313 136.36Z" fill="url(#paint3_linear_16_224)"/>
<path fill-rule="evenodd" clip-rule="evenodd" d="M81.4371 150.978C80.3121 161.765 88.1246 171.429 98.9371 172.552C109.75 173.674 119.437 165.88 120.562 155.094C121.687 144.307 113.875 134.643 103.062 133.52C92.2496 132.336 82.5621 140.192 81.4371 150.978ZM114.625 154.47C113.812 161.952 107.062 167.377 99.5621 166.628C92.0621 165.818 86.6246 159.084 87.3746 151.602C88.1871 144.12 94.9371 138.633 102.437 139.444C109.937 140.254 115.375 146.988 114.625 154.47Z" fill="url(#paint4_linear_16_224)"/>
<path fill-rule="evenodd" clip-rule="evenodd" d="M1.50001 295.477C1.54168 295.643 1.60417 295.789 1.6875 295.914L29 270.537C28.8333 270.454 28.6875 270.371 28.5625 270.288L1.50001 295.477ZM2.12501 296.849C2.20834 297.015 2.29169 297.161 2.37502 297.285L30.3125 271.348C30.1875 271.223 30.0417 271.119 29.875 271.036L2.12501 296.849ZM3.68751 299.405C3.81251 299.53 3.91668 299.655 4.00001 299.779L32.6875 273.094C32.5625 273.01 32.4375 272.906 32.3125 272.782L3.68751 299.405ZM0.875008 294.043C0.95834 294.209 1.02083 294.376 1.0625 294.542L27.5625 269.851C27.3958 269.81 27.2292 269.747 27.0625 269.664L0.875008 294.043ZM4.56252 300.59C4.68752 300.715 4.81251 300.839 4.93751 300.964L33.6875 274.153C33.5625 274.07 33.4583 273.966 33.375 273.842L4.56252 300.59ZM2.81249 298.221C2.89582 298.345 2.97918 298.47 3.06251 298.595L31.4375 272.221C31.3125 272.096 31.1875 271.992 31.0625 271.909L2.81249 298.221ZM0.375015 292.484C0.416683 292.651 0.479176 292.817 0.562508 292.983L26 269.29C25.8333 269.249 25.6667 269.207 25.5 269.165L0.375015 292.484ZM-0.1875 286.935C-0.1875 287.185 -0.1875 287.413 -0.1875 287.621L20.625 268.23C20.4167 268.23 20.2083 268.23 20 268.23L-0.1875 286.935ZM-7.62939e-06 284.753C-0.0416756 285.002 -0.0833092 285.252 -0.124977 285.501L18.4375 268.23C18.1875 268.23 17.9375 268.251 17.6875 268.293L-7.62939e-06 284.753ZM-0.1875 288.93C-0.1875 289.138 -0.1875 289.346 -0.1875 289.554L22.5625 268.417C22.3542 268.376 22.1458 268.355 21.9375 268.355L-0.1875 288.93ZM0.562508 282.197C0.479176 282.488 0.416683 282.779 0.375015 283.07L16 268.48C15.7083 268.521 15.4167 268.584 15.125 268.667L0.562508 282.197ZM-0.0624924 290.739C-0.0208244 290.946 0.0208473 291.134 0.0625153 291.3L24.25 268.791C24.0834 268.75 23.8958 268.708 23.6875 268.667L-0.0624924 290.739ZM1.81251 279.017C1.64584 279.391 1.47918 279.765 1.31252 280.139L13 269.228C12.625 269.353 12.2292 269.498 11.8125 269.664L1.81251 279.017ZM6.00002 273.468C5.25002 274.174 4.56252 274.943 3.93752 275.775L8.43749 271.535C7.60416 272.117 6.79168 272.761 6.00002 273.468ZM7.68752 303.583C7.81252 303.666 7.93751 303.77 8.06251 303.894L36.25 277.645C36.1667 277.479 36.0833 277.333 36 277.209L7.68752 303.583ZM18.5625 307.448C18.7708 307.49 19 307.511 19.25 307.511L39.125 288.993C39.125 288.743 39.125 288.515 39.125 288.307L18.5625 307.448ZM16.625 307.261C16.8333 307.303 17.0417 307.324 17.25 307.324L39.1875 286.935C39.1875 286.727 39.1667 286.54 39.125 286.374L16.625 307.261ZM20.75 307.386C21 307.386 21.25 307.365 21.5 307.324L38.875 291.175C38.9167 290.926 38.9583 290.676 39 290.427L20.75 307.386ZM23.25 307.074C23.5417 306.991 23.8542 306.908 24.1875 306.825L38.25 293.731C38.375 293.44 38.4792 293.149 38.5625 292.859L23.25 307.074ZM5.50002 301.588C5.62502 301.671 5.72919 301.775 5.81252 301.899L34.5625 275.151C34.4792 275.026 34.375 274.902 34.25 274.777L5.50002 301.588ZM14.875 306.887C15.0834 306.929 15.2708 306.97 15.4375 307.012L39 285.065C39 284.898 38.9792 284.711 38.9375 284.504L14.875 306.887ZM9.00001 304.393C9.12501 304.476 9.24999 304.56 9.37499 304.643L37.0625 278.892C36.9792 278.767 36.9167 278.622 36.875 278.456L9.00001 304.393ZM10.3125 305.141C10.4375 305.225 10.5833 305.308 10.75 305.391L37.6875 280.326C37.6459 280.16 37.5833 279.994 37.5 279.827L10.3125 305.141ZM13.25 306.388C13.4167 306.472 13.6042 306.534 13.8125 306.576L38.75 283.381C38.7083 283.215 38.6667 283.028 38.625 282.82L13.25 306.388ZM6.56249 302.585C6.68749 302.71 6.81252 302.814 6.93752 302.897L35.5 276.336C35.4167 276.211 35.3333 276.086 35.25 275.962L6.56249 302.585ZM26.25 306.201C26.6667 306.035 27.0833 305.869 27.5 305.703L36.875 297.036C37.0833 296.62 37.2708 296.205 37.4375 295.789L26.25 306.201ZM11.625 305.827C11.7917 305.91 11.9583 305.973 12.125 306.014L38.1875 281.76C38.1458 281.594 38.1042 281.428 38.0625 281.261L11.625 305.827ZM32.8125 302.149C33.2292 301.775 33.625 301.38 34 300.964L31.5625 303.271C31.9792 302.938 32.3958 302.564 32.8125 302.149Z" fill="url(#paint5_linear_16_224)"/>
<path d="M234.312 -6.11026C232.25 -23.1318 244.312 -38.5323 261.312 -40.6522C278.312 -42.7098 293.812 -30.6762 295.937 -13.6546C298 3.30461 285.937 18.7674 268.875 20.825C251.875 22.8825 236.375 10.849 234.312 -6.11026Z" fill="url(#paint6_linear_16_224)"/>
<path fill-rule="evenodd" clip-rule="evenodd" d="M361.438 140.412L362.187 141.597L365 139.851L364.25 138.667L361.438 140.412ZM364.625 144.403L365.75 145.338L367.812 142.782L366.75 141.909L364.625 144.403ZM371.438 144.652L370.125 144.091L368.938 147.209L370.25 147.707L371.438 144.652ZM374.062 145.213L373.875 148.518L375.25 148.58L375.438 145.276L374.062 145.213ZM378.188 145.089L379 148.269L380.375 147.895L379.562 144.715L378.188 145.089ZM383.75 146.398L384.938 145.65L383.188 142.906L382 143.655L383.75 146.398ZM385.125 141.036L387.688 143.156L388.625 142.034L386.062 139.976L385.125 141.036ZM387.312 137.607L390.437 138.791L390.937 137.482L387.812 136.297L387.312 137.607ZM388.375 133.679L391.688 133.803L391.75 132.432L388.438 132.245L388.375 133.679ZM388.188 129.626L391.375 128.753L391 127.381L387.812 128.254L388.188 129.626ZM385.875 124.638L386.688 125.823L389.438 124.014L388.625 122.83L385.875 124.638ZM382.938 121.77L384.062 122.643L386.125 120.086L385 119.213L382.938 121.77ZM379.25 119.962L380.625 120.46L381.75 117.405L380.438 116.907L379.25 119.962ZM376.625 119.401L376.75 116.158L375.312 116.096L375.188 119.401H376.625ZM372.562 119.65L371.625 116.47L370.25 116.907L371.188 120.024L372.562 119.65ZM368.75 121.209L366.938 118.465L365.75 119.276L367.625 122.019L368.75 121.209ZM365.625 123.827L363 121.832L362.125 122.892L364.75 124.95L365.625 123.827ZM363.437 127.257L360.375 126.197L359.875 127.506L363 128.628L363.437 127.257ZM359.125 132.556L362.438 132.619V131.185L359.188 131.122L359.125 132.556ZM360 137.607L363.188 136.671L362.75 135.3L359.625 136.235L360 137.607Z" fill="url(#paint7_linear_16_224)"/>
<path fill-rule="evenodd" clip-rule="evenodd" d="M221.813 0.685987C221.125 -9.53943 212.188 -17.2708 201.938 -16.585C191.688 -15.8368 183.938 -6.92073 184.625 3.30469C185.313 13.5301 194.25 21.2615 204.563 20.5757C214.813 19.8275 222.563 10.9114 221.813 0.685987ZM190.626 2.86824C190.126 -4.05262 195.375 -10.1006 202.375 -10.5994C209.313 -11.0982 215.375 -5.79843 215.813 1.12244C216.313 8.0433 211.063 14.0913 204.126 14.5901C197.188 15.0889 191.126 9.78911 190.626 2.86824Z" fill="url(#paint8_linear_16_224)"/>
<path fill-rule="evenodd" clip-rule="evenodd" d="M43.75 75.0696C43.0625 74.259 43.1875 73.0744 43.9375 72.3885C44.75 71.7027 46 71.8274 46.6875 72.6379C47.3125 73.4485 47.25 74.6331 46.4375 75.319C45.625 76.0048 44.4375 75.8801 43.75 75.0696ZM50.3125 82.8633C49.625 82.0528 49.75 80.8681 50.5 80.1823C51.3125 79.4964 52.5625 79.6211 53.25 80.4317C53.875 81.2422 53.8126 82.4269 53.0001 83.1127C52.1876 83.7986 51 83.6739 50.3125 82.8633ZM56.875 90.6571C56.1875 89.9089 56.3126 88.6619 57.0626 87.9761C57.8751 87.3526 59.125 87.4149 59.8125 88.2254C60.4375 89.036 60.3751 90.2207 59.5626 90.9065C58.7501 91.5924 57.5625 91.4677 56.875 90.6571ZM45 60.729C44.3125 59.9185 44.4375 58.7338 45.25 58.048C46.0625 57.3621 47.25 57.4868 47.9375 58.2974C48.625 59.1079 48.5 60.2926 47.6875 60.9784C46.875 61.6643 45.6875 61.5396 45 60.729ZM51.5625 68.5228C50.875 67.7123 51 66.5276 51.8125 65.8418C52.625 65.1559 53.8125 65.2806 54.5 66.0912C55.1875 66.9017 55.0626 68.0864 54.2501 68.7722C53.4376 69.4581 52.25 69.3334 51.5625 68.5228ZM58.125 76.3166C57.4375 75.506 57.5625 74.3214 58.375 73.6355C59.1875 72.9497 60.375 73.0744 61.0625 73.8849C61.75 74.6955 61.6251 75.8801 60.8126 76.566C60.0001 77.2518 58.8125 77.1271 58.125 76.3166ZM64.6875 84.1103C64 83.3621 64.125 82.1151 64.9375 81.4293C65.75 80.8058 66.9375 80.8681 67.625 81.6787C68.3125 82.4892 68.1876 83.6739 67.3751 84.3597C66.5626 85.0456 65.375 84.9209 64.6875 84.1103ZM74.1875 89.4725C74.875 90.283 74.75 91.4677 73.9375 92.1535C73.125 92.8394 71.9375 92.777 71.25 91.9665C70.5625 91.1559 70.6875 89.9089 71.5 89.2854C72.3125 88.5995 73.5 88.6619 74.1875 89.4725ZM52.8125 54.1823C52.125 53.3717 52.25 52.1871 53.0625 51.5012C53.875 50.8154 55.0625 50.9401 55.75 51.7506C56.4375 52.5612 56.3126 53.7458 55.5001 54.4317C54.6876 55.1175 53.5 54.9928 52.8125 54.1823ZM59.375 61.976C58.6875 61.1655 58.8125 59.9808 59.625 59.295C60.4375 58.6091 61.625 58.7338 62.3125 59.5444C63 60.3549 62.8751 61.5396 62.0626 62.2255C61.2501 62.9113 60.0625 62.7866 59.375 61.976ZM65.9375 69.7698C65.25 68.9593 65.375 67.7746 66.1875 67.0888C67 66.4029 68.1875 66.5276 68.875 67.3382C69.5625 68.1487 69.4376 69.3334 68.6251 70.0192C67.8126 70.7051 66.625 70.5804 65.9375 69.7698ZM72.5 77.5636C71.8125 76.8154 71.9375 75.5684 72.75 74.8825C73.5625 74.259 74.75 74.3214 75.4375 75.1319C76.125 75.9425 76 77.1271 75.1875 77.813C74.375 78.4988 73.1875 78.3741 72.5 77.5636ZM79.0625 85.4197C78.375 84.6091 78.5 83.3621 79.3125 82.7386C80.125 82.0528 81.3125 82.1151 82 82.9257C82.6875 83.7362 82.5625 84.9209 81.75 85.6067C80.9375 86.2926 79.75 86.2302 79.0625 85.4197ZM60.625 47.6355C59.9375 46.825 60.0625 45.6403 60.875 44.9545C61.6875 44.2686 62.875 44.3933 63.5625 45.2039C64.25 46.0144 64.1251 47.1991 63.3126 47.8849C62.5001 48.5708 61.3125 48.4461 60.625 47.6355ZM67.1875 55.4293C66.5 54.6187 66.625 53.4341 67.4375 52.7482C68.25 52.0624 69.4375 52.1871 70.125 52.9976C70.8125 53.8082 70.6875 54.9928 69.875 55.6787C69.0625 56.3645 67.875 56.2398 67.1875 55.4293ZM73.75 63.2231C73.0625 62.4125 73.1875 61.2278 74 60.542C74.8125 59.8561 76 59.9808 76.6875 60.7914C77.375 61.6019 77.25 62.7866 76.4375 63.4725C75.625 64.1583 74.4375 64.0336 73.75 63.2231ZM80.3125 71.0168C79.625 70.2686 79.75 69.0216 80.5625 68.3358C81.375 67.7123 82.5625 67.7746 83.25 68.5852C83.9375 69.3957 83.8125 70.5804 83 71.2662C82.1875 71.9521 81 71.8274 80.3125 71.0168ZM86.875 78.8729C86.1875 78.0624 86.3125 76.8154 87.125 76.1919C87.9375 75.506 89.125 75.5684 89.8125 76.3789C90.5 77.1895 90.375 78.3741 89.5625 79.06C88.75 79.7458 87.5625 79.6835 86.875 78.8729ZM75 48.8825C74.3125 48.072 74.4375 46.8873 75.25 46.2015C76.0625 45.5156 77.25 45.6403 77.9375 46.4509C78.625 47.2614 78.5 48.4461 77.6875 49.1319C76.875 49.8178 75.6875 49.6931 75 48.8825ZM81.5625 56.6763C80.875 55.8657 81 54.6811 81.8125 53.9952C82.625 53.3094 83.8125 53.4341 84.5 54.2446C85.1875 55.0552 85.0625 56.2398 84.25 56.9257C83.4375 57.6115 82.25 57.4868 81.5625 56.6763ZM88.125 64.4701C87.4375 63.7219 87.5625 62.4748 88.375 61.789C89.1875 61.1031 90.375 61.2278 91.0625 62.0384C91.75 62.849 91.625 64.0336 90.8125 64.7195C90 65.4053 88.8125 65.2806 88.125 64.4701Z" fill="url(#paint9_linear_16_224)"/>
<path fill-rule="evenodd" clip-rule="evenodd" d="M369.937 231.319C358.875 238.801 356 253.703 363.437 264.739C370.875 275.775 385.875 278.643 396.937 271.223C407.937 263.803 410.875 248.839 403.437 237.866C396 226.83 381 223.899 369.937 231.319ZM392.812 265.175C385.125 270.288 374.687 268.293 369.562 260.623C364.375 253.017 366.375 242.604 374.062 237.429C381.75 232.254 392.187 234.312 397.312 241.918C402.5 249.588 400.437 260 392.812 265.175Z" fill="url(#paint10_linear_16_224)"/>
</g>
</g>
<defs>
<linearGradient id="paint0_linear_16_224" x1="361.949" y1="175.056" x2="335.779" y2="146.924" gradientUnits="userSpaceOnUse">
<stop stop-color="white" stop-opacity="0"/>
<stop offset="1" stop-color="white"/>
</linearGradient>
<linearGradient id="paint1_linear_16_224" x1="260.887" y1="82.8689" x2="353.285" y2="136.345" gradientUnits="userSpaceOnUse">
<stop stop-color="white" stop-opacity="0"/>
<stop offset="1" stop-color="white"/>
</linearGradient>
<linearGradient id="paint2_linear_16_224" x1="0.285007" y1="10.7835" x2="54.1877" y2="54.5392" gradientUnits="userSpaceOnUse">
<stop stop-color="white" stop-opacity="0"/>
<stop offset="1" stop-color="white"/>
</linearGradient>
<linearGradient id="paint3_linear_16_224" x1="254.195" y1="200.105" x2="358.523" y2="105.94" gradientUnits="userSpaceOnUse">
<stop stop-color="white" stop-opacity="0"/>
<stop offset="1" stop-color="white"/>
</linearGradient>
<linearGradient id="paint4_linear_16_224" x1="122.628" y1="135.553" x2="83.4779" y2="131.43" gradientUnits="userSpaceOnUse">
<stop stop-color="white" stop-opacity="0"/>
<stop offset="1" stop-color="white"/>
</linearGradient>
<linearGradient id="paint5_linear_16_224" x1="0.633125" y1="267.495" x2="-0.734652" y2="306.752" gradientUnits="userSpaceOnUse">
<stop stop-color="white" stop-opacity="0"/>
<stop offset="1" stop-color="white"/>
</linearGradient>
<linearGradient id="paint6_linear_16_224" x1="292.136" y1="-44.4051" x2="230.535" y2="-36.821" gradientUnits="userSpaceOnUse">
<stop stop-color="white" stop-opacity="0"/>
<stop offset="1" stop-color="white"/>
</linearGradient>
<linearGradient id="paint7_linear_16_224" x1="353.175" y1="127.214" x2="370.354" y2="154.771" gradientUnits="userSpaceOnUse">
<stop stop-color="white"/>
<stop offset="1" stop-color="white" stop-opacity="0"/>
</linearGradient>
<linearGradient id="paint8_linear_16_224" x1="183.324" y1="-15.2688" x2="185.915" y2="21.8572" gradientUnits="userSpaceOnUse">
<stop stop-color="white" stop-opacity="0"/>
<stop offset="1" stop-color="white"/>
</linearGradient>
<linearGradient id="paint9_linear_16_224" x1="35.9388" y1="65.8187" x2="64.568" y2="100.017" gradientUnits="userSpaceOnUse">
<stop stop-color="white" stop-opacity="0"/>
<stop offset="1" stop-color="white"/>
</linearGradient>
<linearGradient id="paint10_linear_16_224" x1="416.904" y1="257.782" x2="390.022" y2="217.835" gradientUnits="userSpaceOnUse">
<stop stop-color="white" stop-opacity="0"/>
<stop offset="1" stop-color="white"/>
</linearGradient>
<clipPath id="clip0_16_224">
<rect width="389" height="520" fill="white" transform="matrix(-1 0 0 1 389 0)"/>
</clipPath>
</defs>
</svg>
