<svg width="20" height="20" viewBox="0 0 20 20" fill="none" xmlns="http://www.w3.org/2000/svg">
<path d="M5 6.66668L6.79908 8.16591C8.32961 9.44135 9.09487 10.0791 10 10.0791C10.9051 10.0791 11.6704 9.44135 13.2009 8.16591L15 6.66668M8.33333 16.6667H11.6667C14.8094 16.6667 16.3807 16.6667 17.357 15.6904C18.3333 14.7141 18.3333 13.1427 18.3333 10C18.3333 6.85731 18.3333 5.28596 17.357 4.30965C16.3807 3.33334 14.8094 3.33334 11.6667 3.33334H8.33333C5.19063 3.33334 3.61929 3.33334 2.64297 4.30965C1.66666 5.28596 1.66666 6.85731 1.66666 10C1.66666 13.1427 1.66666 14.7141 2.64297 15.6904C3.61929 16.6667 5.19063 16.6667 8.33333 16.6667Z" stroke="#2E2E34" stroke-width="1.25" stroke-linecap="round"/>
</svg>
