<svg width="20" height="20" viewBox="0 0 20 20" fill="none" xmlns="http://www.w3.org/2000/svg">
<path d="M17.2709 7.25362L16.7757 7.63484L17.2709 7.25362ZM17.2709 12.7464L16.7757 12.3652L17.2709 12.7464ZM18.3334 10H17.7084H18.3334ZM2.7291 7.25362L3.22437 7.63484L2.7291 7.25362ZM2.7291 12.7464L3.22437 12.3652L2.7291 12.7464ZM2.7291 7.25362L3.22437 7.63484C4.58222 5.87078 6.79199 3.95834 10 3.95834V3.33334V2.70834C6.23824 2.70834 3.70443 4.96184 2.23383 6.8724L2.7291 7.25362ZM10 3.33334V3.95834C13.2081 3.95834 15.4178 5.87078 16.7757 7.63484L17.2709 7.25362L17.7662 6.8724C16.2956 4.96184 13.7618 2.70834 10 2.70834V3.33334ZM17.2709 12.7464L16.7757 12.3652C15.4178 14.1292 13.2081 16.0417 10 16.0417V16.6667V17.2917C13.7618 17.2917 16.2956 15.0382 17.7662 13.1276L17.2709 12.7464ZM10 16.6667V16.0417C6.79199 16.0417 4.58222 14.1292 3.22437 12.3652L2.7291 12.7464L2.23383 13.1276C3.70443 15.0382 6.23824 17.2917 10 17.2917V16.6667ZM17.2709 7.25362L16.7757 7.63484C17.1412 8.10967 17.3552 8.39339 17.4961 8.71213C17.6277 9.01002 17.7084 9.37412 17.7084 10H18.3334H18.9584C18.9584 9.25975 18.862 8.71074 18.6394 8.20701C18.4261 7.72413 18.109 7.31773 17.7662 6.8724L17.2709 7.25362ZM17.2709 12.7464L17.7662 13.1276C18.109 12.6823 18.4261 12.2759 18.6394 11.793C18.862 11.2893 18.9584 10.7403 18.9584 10H18.3334H17.7084C17.7084 10.6259 17.6277 10.99 17.4961 11.2879C17.3552 11.6066 17.1412 11.8904 16.7757 12.3652L17.2709 12.7464ZM2.7291 7.25362L2.23383 6.8724C1.89104 7.31773 1.57392 7.72413 1.36059 8.20701C1.13806 8.71074 1.04169 9.25975 1.04169 10H1.66669H2.29169C2.29169 9.37412 2.37238 9.01002 2.50399 8.71213C2.6448 8.39339 2.85888 8.10967 3.22437 7.63484L2.7291 7.25362ZM2.7291 12.7464L3.22437 12.3652C2.85888 11.8904 2.6448 11.6066 2.50399 11.2879C2.37239 10.99 2.29169 10.6259 2.29169 10H1.66669H1.04169C1.04169 10.7403 1.13806 11.2893 1.36059 11.793C1.57392 12.2759 1.89104 12.6823 2.23383 13.1276L2.7291 12.7464ZM12.5 10H11.875C11.875 11.0355 11.0356 11.875 10 11.875V12.5V13.125C11.7259 13.125 13.125 11.7259 13.125 10H12.5ZM10 12.5V11.875C8.96449 11.875 8.12502 11.0355 8.12502 10H7.50002H6.87502C6.87502 11.7259 8.27413 13.125 10 13.125V12.5ZM7.50002 10H8.12502C8.12502 8.96448 8.96449 8.12501 10 8.12501V7.50001V6.87501C8.27413 6.87501 6.87502 8.27412 6.87502 10H7.50002ZM10 7.50001V8.12501C11.0356 8.12501 11.875 8.96448 11.875 10H12.5H13.125C13.125 8.27412 11.7259 6.87501 10 6.87501V7.50001Z" fill="#2E2E34"/>
</svg>
