<svg width="20" height="20" viewBox="0 0 20 20" fill="none" xmlns="http://www.w3.org/2000/svg">
<g clip-path="url(#clip0_30_18)">
<path d="M4.16666 8.33332C4.16666 8.79356 4.53976 9.16666 5 9.16666C5.46023 9.16666 5.83333 8.79356 5.83333 8.33332H5H4.16666ZM14.1667 8.33332C14.1667 8.79356 14.5398 9.16666 15 9.16666C15.4602 9.16666 15.8333 8.79356 15.8333 8.33332H15H14.1667ZM6.66666 12.5C6.20643 12.5 5.83333 12.8731 5.83333 13.3333C5.83333 13.7936 6.20643 14.1667 6.66666 14.1667V13.3333V12.5ZM6.67416 14.1667C7.1344 14.1667 7.5075 13.7936 7.5075 13.3333C7.5075 12.8731 7.1344 12.5 6.67416 12.5V13.3333V14.1667ZM9.9925 12.5C9.53226 12.5 9.15916 12.8731 9.15916 13.3333C9.15916 13.7936 9.53226 14.1667 9.9925 14.1667V13.3333V12.5ZM10 14.1667C10.4602 14.1667 10.8333 13.7936 10.8333 13.3333C10.8333 12.8731 10.4602 12.5 10 12.5V13.3333V14.1667ZM13.3258 12.5C12.8656 12.5 12.4925 12.8731 12.4925 13.3333C12.4925 13.7936 12.8656 14.1667 13.3258 14.1667V13.3333V12.5ZM13.3333 14.1667C13.7936 14.1667 14.1667 13.7936 14.1667 13.3333C14.1667 12.8731 13.7936 12.5 13.3333 12.5V13.3333V14.1667ZM6.66666 8.33332V9.16666H13.3333V8.33332V7.49999H6.66666V8.33332ZM13.3333 18.3333V17.5H6.66666V18.3333V19.1667H13.3333V18.3333ZM6.66666 18.3333V17.5C5.46459 17.5 4.64687 17.4982 4.03452 17.4159C3.44615 17.3368 3.17363 17.1973 2.98815 17.0118L2.3989 17.6011L1.80964 18.1903C2.3564 18.7371 3.03925 18.9637 3.81244 19.0677C4.56166 19.1684 5.51171 19.1667 6.66666 19.1667V18.3333ZM1.66666 13.3333H0.833331C0.833331 14.4883 0.831561 15.4383 0.932291 16.1875C1.03624 16.9607 1.26288 17.6436 1.80964 18.1903L2.3989 17.6011L2.98815 17.0118C2.80268 16.8264 2.6632 16.5538 2.5841 15.9655C2.50177 15.3531 2.5 14.5354 2.5 13.3333H1.66666ZM18.3333 13.3333H17.5C17.5 14.5354 17.4982 15.3531 17.4159 15.9655C17.3368 16.5538 17.1973 16.8264 17.0118 17.0118L17.6011 17.6011L18.1904 18.1903C18.7371 17.6436 18.9638 16.9607 19.0677 16.1875C19.1684 15.4383 19.1667 14.4883 19.1667 13.3333H18.3333ZM13.3333 18.3333V19.1667C14.4883 19.1667 15.4383 19.1684 16.1875 19.0677C16.9607 18.9637 17.6436 18.7371 18.1904 18.1903L17.6011 17.6011L17.0118 17.0118C16.8264 17.1973 16.5538 17.3368 15.9655 17.4159C15.3531 17.4982 14.5354 17.5 13.3333 17.5V18.3333ZM13.3333 8.33332V9.16666C14.5354 9.16666 15.3531 9.16843 15.9655 9.25075C16.5538 9.32986 16.8264 9.46934 17.0118 9.65481L17.6011 9.06556L18.1904 8.4763C17.6436 7.92954 16.9607 7.7029 16.1875 7.59895C15.4383 7.49822 14.4883 7.49999 13.3333 7.49999V8.33332ZM18.3333 13.3333H19.1667C19.1667 12.1784 19.1684 11.2283 19.0677 10.4791C18.9638 9.70591 18.7371 9.02306 18.1904 8.4763L17.6011 9.06556L17.0118 9.65481C17.1973 9.84029 17.3368 10.1128 17.4159 10.7012C17.4982 11.3135 17.5 12.1313 17.5 13.3333H18.3333ZM6.66666 8.33332V7.49999C5.51171 7.49999 4.56166 7.49822 3.81244 7.59895C3.03925 7.7029 2.3564 7.92954 1.80964 8.4763L2.3989 9.06556L2.98815 9.65481C3.17363 9.46934 3.44615 9.32986 4.03452 9.25075C4.64687 9.16843 5.46459 9.16666 6.66666 9.16666V8.33332ZM1.66666 13.3333H2.5C2.5 12.1313 2.50177 11.3135 2.5841 10.7012C2.6632 10.1128 2.80268 9.84029 2.98815 9.65481L2.3989 9.06556L1.80964 8.4763C1.26288 9.02306 1.03624 9.70591 0.932291 10.4791C0.831561 11.2283 0.833331 12.1784 0.833331 13.3333H1.66666ZM5 8.33332H5.83333V6.66666H5H4.16666V8.33332H5ZM15 6.66666H14.1667V8.33332H15H15.8333V6.66666H15ZM10 1.66666V2.49999C12.3012 2.49999 14.1667 4.36547 14.1667 6.66666H15H15.8333C15.8333 3.445 13.2217 0.833323 10 0.833323V1.66666ZM5 6.66666H5.83333C5.83333 4.36547 7.69881 2.49999 10 2.49999V1.66666V0.833323C6.77834 0.833323 4.16666 3.445 4.16666 6.66666H5ZM6.66666 13.3333V14.1667H6.67416V13.3333V12.5H6.66666V13.3333ZM9.9925 13.3333V14.1667H10V13.3333V12.5H9.9925V13.3333ZM13.3258 13.3333V14.1667H13.3333V13.3333V12.5H13.3258V13.3333Z" fill="#2E2E34"/>
</g>
<defs>
<clipPath id="clip0_30_18">
<rect width="20" height="20" fill="white"/>
</clipPath>
</defs>
</svg>
