<svg width="76" height="48" viewBox="0 0 76 48" fill="none" xmlns="http://www.w3.org/2000/svg">
<g filter="url(#filter0_d_30_43)">
<g clip-path="url(#clip0_30_43)">
<path d="M35.4 22.3125C35.4 21.3375 35.3125 20.4 35.15 19.5H22.2V24.8188H29.6C29.2812 26.5375 28.3125 27.9938 26.8562 28.9688V32.4187H31.3C33.9 30.025 35.4 26.5 35.4 22.3125Z" fill="#4285F4"/>
<path d="M22.2 35.75C25.9125 35.75 29.025 34.5187 31.3 32.4187L26.8563 28.9687C25.625 29.7937 24.05 30.2812 22.2 30.2812C18.6188 30.2812 15.5875 27.8625 14.5063 24.6125H9.91251V28.175C12.175 32.6687 16.825 35.75 22.2 35.75Z" fill="#34A853"/>
<path d="M14.5062 24.6125C14.2312 23.7875 14.075 22.9063 14.075 22C14.075 21.0938 14.2312 20.2125 14.5062 19.3875V15.825H9.9125C8.95 17.7411 8.44915 19.8558 8.45 22C8.45 24.2188 8.98125 26.3188 9.9125 28.175L14.5062 24.6125Z" fill="#FBBC05"/>
<path d="M22.2 13.7188C24.2188 13.7188 26.0313 14.4125 27.4563 15.775L31.4 11.8312C29.0188 9.6125 25.9063 8.25 22.2 8.25C16.825 8.25 12.175 11.3312 9.91251 15.825L14.5063 19.3875C15.5875 16.1375 18.6188 13.7188 22.2 13.7188Z" fill="#EA4335"/>
</g>
</g>
<defs>
<filter id="filter0_d_30_43" x="-6" y="0" width="88" height="76" filterUnits="userSpaceOnUse" color-interpolation-filters="sRGB">
<feFlood flood-opacity="0" result="BackgroundImageFix"/>
<feColorMatrix in="SourceAlpha" type="matrix" values="0 0 0 0 0 0 0 0 0 0 0 0 0 0 0 0 0 0 127 0" result="hardAlpha"/>
<feOffset dx="16" dy="16"/>
<feGaussianBlur stdDeviation="12"/>
<feComposite in2="hardAlpha" operator="out"/>
<feColorMatrix type="matrix" values="0 0 0 0 0 0 0 0 0 0 0 0 0 0 0 0 0 0 0.04 0"/>
<feBlend mode="normal" in2="BackgroundImageFix" result="effect1_dropShadow_30_43"/>
<feBlend mode="normal" in="SourceGraphic" in2="effect1_dropShadow_30_43" result="shape"/>
</filter>
<clipPath id="clip0_30_43">
<rect width="28" height="28" fill="white" transform="translate(8 8)"/>
</clipPath>
</defs>
</svg>
