<svg width="28" height="28" viewBox="0 0 28 28" fill="none" xmlns="http://www.w3.org/2000/svg">
<g clip-path="url(#clip0_149_44)">
<path d="M27.4 14.3125C27.4 13.3375 27.3125 12.4 27.15 11.5H14.2V16.8188H21.6C21.2812 18.5375 20.3125 19.9938 18.8562 20.9688V24.4187H23.3C25.9 22.025 27.4 18.5 27.4 14.3125Z" fill="#4285F4"/>
<path d="M14.2 27.75C17.9125 27.75 21.025 26.5187 23.3 24.4187L18.8563 20.9687C17.625 21.7937 16.05 22.2812 14.2 22.2812C10.6188 22.2812 7.58751 19.8625 6.50626 16.6125H1.91251V20.175C4.17501 24.6687 8.82501 27.75 14.2 27.75Z" fill="#34A853"/>
<path d="M6.50625 16.6125C6.23125 15.7875 6.075 14.9063 6.075 14C6.075 13.0938 6.23125 12.2125 6.50625 11.3875V7.82501H1.9125C0.949997 9.74109 0.449149 11.8558 0.449998 14C0.449998 16.2188 0.981248 18.3188 1.9125 20.175L6.50625 16.6125Z" fill="#FBBC05"/>
<path d="M14.2 5.71875C16.2188 5.71875 18.0313 6.4125 19.4563 7.775L23.4 3.83125C21.0188 1.6125 17.9063 0.25 14.2 0.25C8.82501 0.25 4.17501 3.33125 1.91251 7.825L6.50626 11.3875C7.58751 8.1375 10.6188 5.71875 14.2 5.71875Z" fill="#EA4335"/>
</g>
<defs>
<clipPath id="clip0_149_44">
<rect width="28" height="28" fill="white"/>
</clipPath>
</defs>
</svg>
